<?xml version="1.0" encoding="utf-8"?>
<!DOCTYPE svg PUBLIC "-//W3C//DTD SVG 20010904//EN" "http://www.w3.org/TR/2001/REC-SVG-20010904/DTD/svg10.dtd">
<svg version="1.0" xmlns="http://www.w3.org/2000/svg" width="240" height="300">

 <g fill="#000000">
  <path d="M116.4 296 c-11.4 -2.7 -16.9 -12.5 -18.9 -33.8 -0.7 -6.7 -0.9 -7.4 -3.6 -8.7 -4.8 -2.6 -9.7 -7.4 -10.9 -10.9 -1 -3.2 -1.4 -3.4 -7.2 -4 -12.9 -1.3 -25 -10.1 -30.4 -22 -2.4 -5.2 -2.8 -7.4 -2.8 -15.1 0 -7.6 0.4 -9.9 2.6 -14.7 3.5 -7.5 10.5 -14.9 17.6 -18.5 3.1 -1.5 5.9 -2.9 6.1 -3 0.2 -0.2 -0.1 -0.8 -0.7 -1.5 -1.4 -1.8 -8.6 -24.8 -11.9 -38.1 -1.7 -6.8 -3.8 -12.8 -5.4 -15.2 -3.7 -5.5 -4.9 -10.5 -4.9 -20.2 0 -8 0.1 -8.3 3 -10.4 3.5 -2.7 3.1 -3.9 -1.6 -3.9 -5.3 0 -17.2 -2.9 -22.9 -5.6 -11.7 -5.5 -18.4 -14.8 -19.3 -27.2 -0.4 -6.4 -0.3 -6.8 2.2 -8.1 1.9 -1.1 5.4 -1.3 14.8 -0.8 20.1 0.9 32.7 4.7 41.5 12.2 l4.2 3.5 3.4 -1.6 3.5 -1.7 -3.8 -14.6 c-2.1 -8 -4.5 -16.6 -5.4 -19 -2 -5.6 -2 -5.8 0.5 -7.2 1.7 -0.9 3.2 -0.6 7.8 1.4 13.1 5.9 24.8 5.7 33.9 -0.4 3.8 -2.6 4.9 -2.9 6.9 -2 1.3 0.6 2.3 1.9 2.3 3.1 0 6.7 8.3 9.8 18.3 6.8 3.8 -1.1 4.1 -1.1 5.6 1.2 2.8 4.2 4.9 5.9 8.9 7 5.2 1.3 14 -1.3 23.5 -7 5.5 -3.3 7.1 -3.9 8.3 -2.9 0.8 0.6 1.4 1.7 1.4 2.3 0 0.6 -3.7 5.4 -8.1 10.6 -7 8.1 -12.9 17.7 -12.9 21 0 0.5 0.9 1.4 2 2 1.7 0.9 2.7 0.5 6.2 -2.5 8.9 -7.5 21.5 -11.3 41.6 -12.2 9.4 -0.5 12.9 -0.3 14.8 0.8 2.5 1.3 2.6 1.7 2.2 8.1 -0.9 12.4 -7.6 21.7 -19.3 27.2 -5.7 2.7 -17.6 5.6 -22.9 5.6 -4.7 0 -5.1 1.2 -1.6 3.9 2.9 2.1 3 2.4 3 10.4 0 9.7 -1.2 14.7 -4.9 20.2 -1.6 2.4 -3.7 8.4 -5.4 15.2 -3.8 15.5 -10.5 36.3 -12.8 39.4 l-1.8 2.6 4.2 1.9 c6.6 2.9 15 11.5 18.3 18.7 2.5 5.3 2.9 7.4 2.9 15.2 0 7.7 -0.4 9.9 -2.8 15.1 -5.8 12.6 -18.1 21.1 -32.2 22.1 -5.3 0.4 -7.5 1 -7.5 1.9 0 2.2 -6 8.4 -10.2 10.5 -3.3 1.7 -3.8 2.4 -3.8 5.3 0 4.5 2.4 6.3 9.5 6.8 5.5 0.5 6.2 0.8 9.7 4.9 8.2 9.5 5.4 19.7 -6.6 24.5 -4.9 2 -7.6 2.4 -15.5 2.3 -5.3 -0.1 -11 -0.4 -12.7 -0.9z m24.9 -9.1 c2.9 -1.5 5.6 -5 5.7 -7.1 0 -3.1 -4.8 -5.8 -10.4 -5.8 -5.1 0 -8.7 -1.5 -11.3 -4.8 -0.9 -1.1 -1.3 -6.4 -1.3 -18 l0 -16.5 -3.9 -4.2 c-2.1 -2.3 -4 -4.7 -4.3 -5.5 -0.2 -0.8 -2.3 0.7 -5.6 4.1 l-5.2 5.4 0 10.5 c0 13.2 2.1 27.6 4.9 33.4 2.2 4.5 5.4 7.2 10 8.6 4 1.2 19 1.1 21.4 -0.1z m21.2 -57.3 c10.1 -4.7 17.9 -16.1 17.9 -26.1 -0.1 -10.6 -9.2 -23 -20.1 -27.1 -2.7 -1 -5.4 -2.4 -6 -3 -1.9 -1.8 -1.6 -7.2 0.7 -13.3 1.8 -4.6 1.9 -5.8 0.9 -9 -5 -15.2 -26.8 -26.2 -45.7 -23 -14.6 2.4 -29 12.7 -32 22.8 -1.1 3.6 -1 4.7 0.8 8.7 3.5 8.1 2.6 13.4 -2.4 13.4 -4.7 0 -12.8 4.4 -17.6 9.6 -11.2 12.2 -11 26 0.5 38.3 8.7 9.3 19.9 11.9 30.5 6.9 7 -3.2 12.6 -8.8 15.8 -15.8 3.3 -7 3.3 -12.4 0 -18.6 -2.1 -4 -4 -5.8 -10.6 -9.9 -11.7 -7.3 -12.3 -8 -12 -13.4 l0.3 -4.6 5.5 -0.3 c9.2 -0.5 16.7 3.7 24.1 13.7 l2.5 3.4 3.7 -5.1 c4.2 -5.6 11.3 -10.9 16.1 -11.8 1.7 -0.3 5.2 -0.4 7.6 -0.2 l4.5 0.3 0.3 4.6 c0.3 5.4 -0.3 6.1 -12 13.4 -6.6 4.1 -8.5 5.9 -10.6 9.8 -4.8 9.3 -2.7 19.9 5.9 29.2 9.3 10.1 19.8 12.5 31.4 7.1z m-91 -94.3 c1 -1.5 3.2 -3.9 4.9 -5.5 l3 -2.8 -4.1 0 c-2.2 0 -5.4 -0.3 -7.1 -0.6 l-3 -0.6 1.6 6.1 c0.9 3.4 1.9 6.1 2.3 6.1 0.4 0 1.5 -1.2 2.4 -2.7z m95.7 -3.4 l1.6 -6.1 -3 0.6 c-1.7 0.3 -4.9 0.6 -7.2 0.6 l-4.1 0.1 2.7 2 c1.5 1.1 3.7 3.5 4.8 5.4 1.2 1.9 2.5 3.5 2.9 3.5 0.4 0 1.4 -2.7 2.3 -6.1z m-42.9 -19.2 c-1.4 -2.2 -2.9 -6.4 -3.5 -9.5 -1.3 -7.2 -2.1 -8.7 -4.4 -8.7 -1.4 0 -2 0.8 -2.2 3 -0.5 5.7 -2.3 11.7 -4.6 15.3 l-2.3 3.7 9.7 0 9.7 0 -2.4 -3.8z m-3.9 -33.1 c1.2 -4.7 6.2 -5.6 30.6 -5.6 l22 0 -2 -4 c-5 -9.8 -12.7 -15.3 -26.8 -19.2 -6.6 -1.8 -10.5 -2.1 -27.2 -2.1 -16.7 0 -20.6 0.3 -27.2 2.1 -14.1 3.9 -21.8 9.4 -26.8 19.2 l-2 4 22 0 c24.4 0 29.4 0.9 30.6 5.6 0.5 1.8 1.3 2.4 3.4 2.4 2.1 0 2.9 -0.6 3.4 -2.4z m-68.5 -16.1 c1.1 -2.5 3 -5.9 4.1 -7.5 l2.1 -2.9 -5.3 -3 c-2.9 -1.7 -7.5 -3.7 -10.3 -4.5 -6 -1.7 -18.9 -3.6 -25 -3.6 l-4.4 0 1.4 4.5 c0.7 2.5 2.5 6.2 4 8.1 4.2 5.5 14.9 10.8 25.5 12.7 5.5 0.9 5.9 0.8 7.9 -3.8z m145.6 1.9 c11.5 -3.3 19.4 -10 22 -18.9 l1.4 -4.5 -4.4 0 c-6.1 0 -19 1.9 -25 3.6 -2.7 0.8 -7.4 2.8 -10.3 4.5 l-5.3 3 2.1 2.9 c1.1 1.6 3 5 4.1 7.5 l2.1 4.6 4.1 -0.6 c2.3 -0.4 6.5 -1.3 9.2 -2.1z m-40.8 -29.4 l2 -4.5 -7.1 -0.1 c-7.6 -0.1 -12.7 -1.9 -14.9 -5.4 -1 -1.7 -2.3 -2 -8.7 -2 -8.1 0 -15 -2.3 -16.8 -5.6 -0.9 -1.6 -1.3 -1.7 -5.3 -0.3 -4.7 1.5 -18.7 1.9 -25.6 0.7 l-4.1 -0.8 2.8 10.6 c1.6 5.9 3.1 10.8 3.3 11 0.2 0.3 2.8 -0.1 5.8 -0.8 8 -1.9 51.3 -1.6 59.9 0.4 3.6 0.8 6.6 1.4 6.6 1.4 0.1 -0.1 1 -2.1 2.1 -4.6z"/>
  </g>
 <g fill="#d66b0c">
  <path d="M142.5 234.7 c-6.6 -2.2 -9.9 -4.3 -14.4 -9.2 -6.4 -6.9 -8.5 -12.4 -8.6 -22 0 -11.9 2.6 -16.4 13.4 -23.1 4.5 -2.8 9.2 -6 10.3 -7.2 4.1 -4.1 -0.2 -6.7 -6.9 -4.1 -4.9 1.8 -10.2 6.1 -13.9 11.1 -3 4.1 -4.1 4.8 -6.9 4.8 -2.8 0 -3.9 -0.7 -6.9 -4.8 -3.7 -5 -9 -9.3 -13.9 -11.1 -6.7 -2.6 -11 0 -6.9 4.1 1.1 1.2 5.8 4.4 10.3 7.2 10.5 6.5 13.4 11.4 13.4 22.1 0 12.3 -6.9 22.9 -18.5 28.4 -7.5 3.6 -19 3.7 -26.7 0.2 -6.2 -2.8 -13.6 -10.3 -16.6 -16.9 -3 -6.6 -3 -18.8 0 -25.4 4.3 -9.5 16.1 -18.8 23.9 -18.8 4.2 0 4.8 -1.9 2.4 -7.2 -3.8 -8.3 -2 -16.4 5.3 -24.5 13.2 -14.4 39.4 -18.4 59.1 -8.9 16.3 7.9 22.6 20 17.7 33.6 -2.6 7 -2.3 7.6 5.2 10.4 6.6 2.5 14.9 10.3 17.8 16.8 3.5 7.8 3.4 19.3 -0.2 26.8 -5.3 11.1 -15.6 18 -27.8 18.6 -3.8 0.2 -8.3 -0.2 -10.6 -0.9z"/>
 </g>
 <g fill="#ffc90e">
  <path d="M91.6 245.8 c-1.9 -1.8 -3.7 -4.2 -4 -5.4 -0.5 -1.7 0 -2.3 3.1 -3.3 2.1 -0.7 4.4 -1.5 5.1 -1.7 0.9 -0.4 1.2 1.2 1.2 6.5 0 4.1 -0.4 7.1 -1 7.1 -0.6 0 -2.6 -1.5 -4.4 -3.2z"/>
  <path d="M132 242.5 c0 -3.6 0.2 -6.5 0.4 -6.5 0.2 0 2.4 0.9 5 2.1 4 1.7 4.5 2.3 3.6 3.8 -1.1 2.2 -6.7 7.1 -8.1 7.1 -0.5 0 -0.9 -2.9 -0.9 -6.5z"/>
  <path d="M68 149.6 c0 -0.3 -1.5 -5.8 -3.4 -12.3 -1.8 -6.5 -3.7 -13.3 -4.1 -15 l-0.6 -3.3 4.8 2.3 c7.3 3.3 20.8 3.2 28.3 -0.4 10.9 -5.1 16.4 -12.4 17.8 -23.5 0.6 -5.2 1 -6 3.5 -6.8 4.9 -1.7 8 0.9 9 7.4 1.5 10.8 7 17.9 17.7 22.9 7.5 3.6 21 3.7 28.3 0.4 l4.8 -2.3 -0.6 3.3 c-0.4 1.7 -2.3 8.5 -4.1 15 -1.9 6.5 -3.4 12 -3.4 12.3 0 0.2 -0.4 0.4 -0.9 0.4 -0.5 0 -1.1 -1.4 -1.5 -3.2 -1.4 -6.9 -8.2 -14.9 -17.6 -20.5 -14.9 -9 -43 -9 -58 0 -8.6 5.1 -16.4 14.2 -17.6 20.4 -0.3 1.8 -1 3.3 -1.5 3.3 -0.5 0 -0.9 -0.2 -0.9 -0.4z"/>
  <path d="M110.6 82.9 c-1 -5 -5.8 -5.9 -31.1 -5.9 l-22.4 0 0.6 -3.2 c2.4 -13 13.5 -22.4 31.3 -26.5 10.8 -2.6 45.2 -2.6 56 0 17.8 4.1 28.9 13.5 31.3 26.5 l0.7 3.2 -22.5 0 c-25.3 0 -30.1 0.9 -31.1 5.9 -0.5 2.4 -0.9 2.6 -6.4 2.6 -5.5 0 -5.9 -0.2 -6.4 -2.6z"/>
  <path d="M43.5 70.5 c-18.6 -3 -28.6 -9.6 -32.1 -21.1 -0.8 -2.6 -1.4 -6 -1.4 -7.6 l0 -2.8 7.4 0 c19 0 34.7 4.2 43.5 11.5 l3.1 2.7 -3.5 4 c-1.9 2.2 -4.4 6.5 -5.6 9.4 -1.3 3 -2.5 5.4 -2.8 5.3 -0.3 -0.1 -4.2 -0.7 -8.6 -1.4z"/>
  <path d="M179.1 66.6 c-1.2 -2.9 -3.7 -7.2 -5.6 -9.4 l-3.5 -4 3.1 -2.7 c8.8 -7.3 24.5 -11.5 43.5 -11.5 l7.4 0 0 2.8 c0 4.5 -2.6 12 -5.4 15.7 -4.8 6.3 -16.5 11.7 -28.2 13 -3.3 0.4 -6.6 0.9 -7.5 1.1 -1.1 0.3 -2.2 -1.1 -3.8 -5z"/>
 </g>
 <g fill="#e00a0a">
  <path d="M116.9 290 c-4.6 -1.4 -7.8 -4.1 -10 -8.6 -3 -6.2 -4.9 -20.4 -4.9 -36.4 l0 -13.6 4.1 -3.9 c2.2 -2.2 5.2 -6.2 6.6 -8.9 l2.4 -4.8 2.8 5.8 c1.6 3.3 4.3 7.2 6 8.8 l3.1 3 0 16.6 c0 11.8 0.4 17.1 1.3 18.2 2.6 3.3 6.2 4.8 11.3 4.8 6.3 0 10 2.6 11 7.5 0.7 4.1 -2.2 9.5 -6.1 11.3 -2.9 1.3 -23.4 1.5 -27.6 0.2z"/>
  <path d="M75.2 28.6 c-2.3 -8.7 -4.1 -16.1 -3.9 -16.3 0.2 -0.2 3 0.7 6.3 1.8 4.2 1.6 8.3 2.2 14.4 2.2 8.2 0 10.7 -0.7 19.2 -5.1 0.4 -0.2 1.4 1.1 2.3 2.8 2.5 4.9 9.2 7.4 17.6 6.7 6.3 -0.5 6.9 -0.4 8.3 1.8 3.9 6 14.4 7.5 24.6 3.6 3 -1.2 5.7 -2.1 5.9 -2.1 0.2 0 -1.4 1.9 -3.4 4.1 -2.1 2.3 -5.1 7.1 -6.7 10.6 -2.7 6.1 -3.1 6.5 -5.6 5.8 -19.9 -5.4 -51.7 -5.9 -69.7 -1.2 l-5.1 1.3 -4.2 -16z"/>
 </g>
</svg>